<svg width="87" height="60" viewBox="0 0 87 60" fill="none" xmlns="http://www.w3.org/2000/svg">
<mask id="mask0_10_97" style="mask-type:luminance" maskUnits="userSpaceOnUse" x="33" y="0" width="32" height="20">
<path d="M33 0.666687H64.2452V19.4548H33V0.666687Z" fill="white"/>
</mask>
<g mask="url(#mask0_10_97)">
<g filter="url(#filter0_d_10_97)">
<mask id="mask1_10_97" style="mask-type:luminance" maskUnits="userSpaceOnUse" x="33" y="0" width="32" height="20">
<path d="M61.7559 19.3739L58.8666 16.4317C58.8666 16.4317 59.9952 12.9629 60.4979 9.90426C60.8266 7.88817 60.4061 6.43114 58.4182 5.01836C57.6291 4.45821 56.5113 4.23157 55.3234 4.23157C53.5193 4.23157 51.5423 4.74746 50.2891 5.37992C48.2094 6.42682 33.0798 13.2047 33.0798 13.2047C33.0798 13.2047 44.8657 4.28985 49.1604 2.15287C51.1797 1.14375 53.1628 0.68613 55.0092 0.671021H55.1555C57.1699 0.68613 59.0225 1.23548 60.5837 2.19065C63.6084 4.04809 64.7371 7.7144 63.7921 11.7908C62.8471 15.8673 61.762 19.3739 61.762 19.3739H61.7559Z" fill="white"/>
</mask>
<g mask="url(#mask1_10_97)">
<path d="M33.0798 0.671021V19.3739H64.7371V0.671021H33.0798Z" fill="white"/>
</g>
</g>
</g>
<mask id="mask2_10_97" style="mask-type:luminance" maskUnits="userSpaceOnUse" x="23" y="0" width="22" height="29">
<path d="M23.4099 0.666687H44.7557V28.8488H23.4099V0.666687Z" fill="white"/>
</mask>
<g mask="url(#mask2_10_97)">
<g filter="url(#filter1_d_10_97)">
<mask id="mask3_10_97" style="mask-type:luminance" maskUnits="userSpaceOnUse" x="23" y="0" width="22" height="29">
<path d="M37.5523 28.6556C37.5523 28.6556 27.5707 18.1294 25.178 14.2947C24.0384 12.4707 23.5261 10.6856 23.52 9.02135V8.99329C23.5261 7.17362 24.1412 5.50074 25.2215 4.0912C26.8202 2.0125 29.6238 0.936462 32.9071 0.936462L35.9705 1.23111C40.5347 2.0751 44.4609 3.0443 44.4609 3.0443L41.1668 5.62593C41.1668 5.62593 37.2829 4.61789 33.8582 4.16891L32.5893 4.07717C30.9579 4.07717 29.6564 4.60278 28.3924 6.02635C26.8094 7.80176 27.6251 11.4292 28.7972 13.2867C29.9694 15.143 37.5523 28.6556 37.5523 28.6556Z" fill="white"/>
</mask>
<g mask="url(#mask3_10_97)">
<path d="M23.52 0.936462V28.6556H44.4609V0.936462H23.52Z" fill="white"/>
</g>
</g>
</g>
<mask id="mask4_10_97" style="mask-type:luminance" maskUnits="userSpaceOnUse" x="23" y="18" width="32" height="20">
<path d="M23.4099 18.3496H54.6551V37.414H23.4099V18.3496Z" fill="white"/>
</mask>
<g mask="url(#mask4_10_97)">
<g filter="url(#filter2_d_10_97)">
<mask id="mask5_10_97" style="mask-type:luminance" maskUnits="userSpaceOnUse" x="23" y="18" width="32" height="20">
<path d="M32.5192 37.3104C30.4878 37.3051 28.6244 36.7557 27.0522 35.7908C24.0275 33.9334 22.8989 30.2617 23.8499 26.1906C24.7997 22.1196 25.8801 18.6076 25.8801 18.6076L28.7706 21.5497C28.7706 21.5497 27.6407 25.0185 27.1392 28.0772C26.8093 30.0933 27.2311 31.5503 29.219 32.9642C30.0069 33.5233 31.1246 33.7499 32.3137 33.7499C34.1179 33.7499 36.0949 33.234 37.3481 32.6016C39.4266 31.5546 54.5513 24.7768 54.5513 24.7768C54.5513 24.7768 42.7703 33.6916 38.4816 35.8297C36.4454 36.842 34.4527 37.3051 32.6001 37.3104H32.5192Z" fill="white"/>
</mask>
<g mask="url(#mask5_10_97)">
<path d="M27.196 46.9927L61.7233 34.7709L50.2541 8.92432L15.7256 21.1461L27.196 46.9927Z" fill="white"/>
</g>
</g>
</g>
<mask id="mask6_10_97" style="mask-type:luminance" maskUnits="userSpaceOnUse" x="42" y="9" width="23" height="29">
<path d="M42.8994 9.23181H64.2452V37.1377H42.8994V9.23181Z" fill="white"/>
</mask>
<g mask="url(#mask6_10_97)">
<g filter="url(#filter3_d_10_97)">
<mask id="mask7_10_97" style="mask-type:luminance" maskUnits="userSpaceOnUse" x="43" y="9" width="22" height="29">
<path d="M54.7287 37.0449L51.6666 36.7503C47.1072 35.9063 43.1749 34.9371 43.1749 34.9371L46.4703 32.3554C46.4703 32.3554 50.3542 33.3645 53.7777 33.8125L55.0478 33.9042C56.6792 33.9042 57.9806 33.3786 59.2447 31.955C60.8265 30.1807 60.0108 26.5521 58.8386 24.6947C57.6677 22.8383 50.0835 9.32574 50.0835 9.32574C50.0835 9.32574 60.0652 19.852 62.4579 23.6866C63.5926 25.5052 64.111 27.286 64.1158 28.9406V29.0075C64.111 30.8218 63.4947 32.486 62.4144 33.8902C60.8156 35.9689 58.0133 37.0449 54.7287 37.0449Z" fill="white"/>
</mask>
<g mask="url(#mask7_10_97)">
<path d="M75.0848 13.3817L46.2396 2.71515L32.2061 32.989L61.0525 43.6544L75.0848 13.3817Z" fill="white"/>
</g>
</g>
</g>
<mask id="mask8_10_97" style="mask-type:luminance" maskUnits="userSpaceOnUse" x="40" y="15" width="7" height="7">
<path d="M40.4247 15.863H46.6119V21.3889H40.4247V15.863Z" fill="white"/>
</mask>
<g mask="url(#mask8_10_97)">
<g filter="url(#filter4_d_10_97)">
<mask id="mask9_10_97" style="mask-type:luminance" maskUnits="userSpaceOnUse" x="40" y="16" width="7" height="6">
<path d="M43.4398 21.2604L42.9975 21.241C41.69 20.9809 40.8151 20.2038 40.577 19.2389C40.1504 17.5261 41.5981 16.0119 43.4398 16.0119H43.6621L44.1153 16.0799C45.1956 16.2914 46.0657 17.0728 46.3086 18.0377C46.7352 19.7505 45.2875 21.2604 43.4458 21.2604H43.4398Z" fill="white"/>
</mask>
<g mask="url(#mask9_10_97)">
<path d="M40.1504 16.0119V21.2604H46.7351V16.0119H40.1504Z" fill="white"/>
</g>
</g>
</g>
<g filter="url(#filter5_d_10_97)">
<path d="M8.13625 44.5832C9.3471 44.5832 10.4141 44.853 11.3362 45.3905L10.5579 46.8324C10.1326 46.6112 9.67579 46.4298 9.19 46.2885C8.70301 46.1449 8.29335 46.0726 7.96224 46.0726C7.36527 46.0726 7.068 46.2496 7.068 46.6036C7.068 46.8313 7.21422 47.0137 7.50787 47.1519C7.80031 47.29 8.158 47.4098 8.58095 47.5102C9.0027 47.6117 9.42323 47.7325 9.84256 47.8728C10.2643 48.0142 10.622 48.2441 10.9156 48.5636C11.2117 48.8809 11.3603 49.2802 11.3603 49.7637C11.3603 50.4609 11.0534 51.0049 10.4419 51.3956C9.83289 51.7841 9.05587 51.9784 8.11208 51.9784C7.43778 51.9784 6.77314 51.8748 6.11575 51.6676C5.45837 51.4604 4.88557 51.1787 4.39978 50.8214L5.19735 49.4011C5.60942 49.7184 6.09279 49.9785 6.64746 50.1825C7.20455 50.3876 7.70122 50.489 8.13625 50.489C8.46736 50.489 8.72597 50.4361 8.90965 50.3293C9.09575 50.2203 9.19 50.0616 9.19 49.8544C9.19 49.6558 9.08366 49.4896 8.87098 49.3536C8.65829 49.2187 8.39244 49.1194 8.07341 49.0557C7.7568 48.9899 7.41361 48.9025 7.04383 48.7924C6.67284 48.6801 6.32844 48.5593 6.00941 48.4297C5.6928 48.2981 5.42936 48.0876 5.21668 47.7994C5.004 47.5124 4.89765 47.1681 4.89765 46.7677C4.89765 46.1061 5.19251 45.5761 5.78223 45.179C6.37436 44.7818 7.15984 44.5832 8.13625 44.5832Z" fill="white"/>
</g>
<g filter="url(#filter6_d_10_97)">
<path d="M17.7727 51.918L15.6265 49.0687L14.5486 50.135V51.918H12.4846V44.6652H14.5486V47.8038L17.6567 44.6652H20.0494L17.0332 47.6699L20.2476 51.918H17.7727Z" fill="white"/>
</g>
<g filter="url(#filter7_d_10_97)">
<path d="M23.2145 51.918H21.1505V44.6652H23.2145V51.918Z" fill="white"/>
</g>
<g filter="url(#filter8_d_10_97)">
<path d="M26.9037 50.3725H30.3502V51.918H24.8397V44.6652H26.9037V50.3725Z" fill="white"/>
</g>
<g filter="url(#filter9_d_10_97)">
<path d="M33.4002 50.3725H36.8466V51.918H31.3362V44.6652H33.4002V50.3725Z" fill="white"/>
</g>
<g filter="url(#filter10_d_10_97)">
<path d="M49.4472 51.918H47.6249L47.6104 47.2037L45.6624 51.1927H44.3186L42.3707 47.2037V51.918H40.5242V44.6566H42.7864L44.9905 48.9737L47.1947 44.6566H49.4472V51.918Z" fill="white"/>
</g>
<g filter="url(#filter11_d_10_97)">
<path d="M56.4754 50.5797H52.9275L52.3329 51.918H50.2109L53.7154 44.6652H55.8374L59.2597 51.918H57.0555L56.4754 50.5797ZM55.8712 49.1809L54.7111 46.5L53.5269 49.1809H55.8712Z" fill="white"/>
</g>
<g filter="url(#filter12_d_10_97)">
<path d="M66.2202 46.146H63.7743V51.918H61.7055V46.146H59.2838V44.6566H66.2202V46.146Z" fill="white"/>
</g>
<g filter="url(#filter13_d_10_97)">
<path d="M70.906 44.6047C71.5078 44.6047 72.1012 44.7159 72.6849 44.9372C73.2709 45.1562 73.7688 45.4531 74.1785 45.8265L72.9845 47.0914C72.7199 46.8011 72.4045 46.5712 72.0371 46.4007C71.6698 46.2312 71.3036 46.1459 70.9399 46.1459C70.2982 46.1459 69.7605 46.3489 69.3254 46.7547C68.8928 47.1583 68.6777 47.6559 68.6777 48.2484C68.6777 48.8593 68.8928 49.3687 69.3254 49.7766C69.7605 50.1825 70.2982 50.3854 70.9399 50.3854C71.2807 50.3854 71.6359 50.3098 72.0033 50.1566C72.3707 50.0044 72.6969 49.7972 72.9845 49.5349L74.1881 50.6746C73.7495 51.075 73.2311 51.3956 72.6317 51.6373C72.0323 51.8791 71.4341 52 70.8384 52C69.6166 52 68.6004 51.6449 67.7883 50.9336C66.9762 50.2235 66.5702 49.3352 66.5702 48.27C66.5702 47.2285 66.9823 46.3575 67.8076 45.6581C68.6354 44.9566 69.6686 44.6047 70.906 44.6047Z" fill="white"/>
</g>
<g filter="url(#filter14_d_10_97)">
<path d="M82.6219 51.918H80.5579V49.0989H77.1936V51.918H75.1296V44.6652H77.1936V47.6484H80.5579V44.6652H82.6219V51.918Z" fill="white"/>
</g>
<defs>
<filter id="filter0_d_10_97" x="29.0798" y="0.671021" width="39.0374" height="26.7028" filterUnits="userSpaceOnUse" color-interpolation-filters="sRGB">
<feFlood flood-opacity="0" result="BackgroundImageFix"/>
<feColorMatrix in="SourceAlpha" type="matrix" values="0 0 0 0 0 0 0 0 0 0 0 0 0 0 0 0 0 0 127 0" result="hardAlpha"/>
<feOffset dy="4"/>
<feGaussianBlur stdDeviation="2"/>
<feComposite in2="hardAlpha" operator="out"/>
<feColorMatrix type="matrix" values="0 0 0 0 0 0 0 0 0 0 0 0 0 0 0 0 0 0 0.25 0"/>
<feBlend mode="normal" in2="BackgroundImageFix" result="effect1_dropShadow_10_97"/>
<feBlend mode="normal" in="SourceGraphic" in2="effect1_dropShadow_10_97" result="shape"/>
</filter>
<filter id="filter1_d_10_97" x="19.52" y="0.936462" width="28.9409" height="35.7192" filterUnits="userSpaceOnUse" color-interpolation-filters="sRGB">
<feFlood flood-opacity="0" result="BackgroundImageFix"/>
<feColorMatrix in="SourceAlpha" type="matrix" values="0 0 0 0 0 0 0 0 0 0 0 0 0 0 0 0 0 0 127 0" result="hardAlpha"/>
<feOffset dy="4"/>
<feGaussianBlur stdDeviation="2"/>
<feComposite in2="hardAlpha" operator="out"/>
<feColorMatrix type="matrix" values="0 0 0 0 0 0 0 0 0 0 0 0 0 0 0 0 0 0 0.25 0"/>
<feBlend mode="normal" in2="BackgroundImageFix" result="effect1_dropShadow_10_97"/>
<feBlend mode="normal" in="SourceGraphic" in2="effect1_dropShadow_10_97" result="shape"/>
</filter>
<filter id="filter2_d_10_97" x="19.5215" y="18.6076" width="39.0298" height="26.7028" filterUnits="userSpaceOnUse" color-interpolation-filters="sRGB">
<feFlood flood-opacity="0" result="BackgroundImageFix"/>
<feColorMatrix in="SourceAlpha" type="matrix" values="0 0 0 0 0 0 0 0 0 0 0 0 0 0 0 0 0 0 127 0" result="hardAlpha"/>
<feOffset dy="4"/>
<feGaussianBlur stdDeviation="2"/>
<feComposite in2="hardAlpha" operator="out"/>
<feColorMatrix type="matrix" values="0 0 0 0 0 0 0 0 0 0 0 0 0 0 0 0 0 0 0.25 0"/>
<feBlend mode="normal" in2="BackgroundImageFix" result="effect1_dropShadow_10_97"/>
<feBlend mode="normal" in="SourceGraphic" in2="effect1_dropShadow_10_97" result="shape"/>
</filter>
<filter id="filter3_d_10_97" x="39.1749" y="9.32574" width="28.9409" height="35.7192" filterUnits="userSpaceOnUse" color-interpolation-filters="sRGB">
<feFlood flood-opacity="0" result="BackgroundImageFix"/>
<feColorMatrix in="SourceAlpha" type="matrix" values="0 0 0 0 0 0 0 0 0 0 0 0 0 0 0 0 0 0 127 0" result="hardAlpha"/>
<feOffset dy="4"/>
<feGaussianBlur stdDeviation="2"/>
<feComposite in2="hardAlpha" operator="out"/>
<feColorMatrix type="matrix" values="0 0 0 0 0 0 0 0 0 0 0 0 0 0 0 0 0 0 0.25 0"/>
<feBlend mode="normal" in2="BackgroundImageFix" result="effect1_dropShadow_10_97"/>
<feBlend mode="normal" in="SourceGraphic" in2="effect1_dropShadow_10_97" result="shape"/>
</filter>
<filter id="filter4_d_10_97" x="36.5018" y="16.0119" width="13.882" height="13.2485" filterUnits="userSpaceOnUse" color-interpolation-filters="sRGB">
<feFlood flood-opacity="0" result="BackgroundImageFix"/>
<feColorMatrix in="SourceAlpha" type="matrix" values="0 0 0 0 0 0 0 0 0 0 0 0 0 0 0 0 0 0 127 0" result="hardAlpha"/>
<feOffset dy="4"/>
<feGaussianBlur stdDeviation="2"/>
<feComposite in2="hardAlpha" operator="out"/>
<feColorMatrix type="matrix" values="0 0 0 0 0 0 0 0 0 0 0 0 0 0 0 0 0 0 0.25 0"/>
<feBlend mode="normal" in2="BackgroundImageFix" result="effect1_dropShadow_10_97"/>
<feBlend mode="normal" in="SourceGraphic" in2="effect1_dropShadow_10_97" result="shape"/>
</filter>
<filter id="filter5_d_10_97" x="0.39978" y="44.5832" width="14.9606" height="15.3952" filterUnits="userSpaceOnUse" color-interpolation-filters="sRGB">
<feFlood flood-opacity="0" result="BackgroundImageFix"/>
<feColorMatrix in="SourceAlpha" type="matrix" values="0 0 0 0 0 0 0 0 0 0 0 0 0 0 0 0 0 0 127 0" result="hardAlpha"/>
<feOffset dy="4"/>
<feGaussianBlur stdDeviation="2"/>
<feComposite in2="hardAlpha" operator="out"/>
<feColorMatrix type="matrix" values="0 0 0 0 0 0 0 0 0 0 0 0 0 0 0 0 0 0 0.25 0"/>
<feBlend mode="normal" in2="BackgroundImageFix" result="effect1_dropShadow_10_97"/>
<feBlend mode="normal" in="SourceGraphic" in2="effect1_dropShadow_10_97" result="shape"/>
</filter>
<filter id="filter6_d_10_97" x="8.48462" y="44.6652" width="15.7629" height="15.2527" filterUnits="userSpaceOnUse" color-interpolation-filters="sRGB">
<feFlood flood-opacity="0" result="BackgroundImageFix"/>
<feColorMatrix in="SourceAlpha" type="matrix" values="0 0 0 0 0 0 0 0 0 0 0 0 0 0 0 0 0 0 127 0" result="hardAlpha"/>
<feOffset dy="4"/>
<feGaussianBlur stdDeviation="2"/>
<feComposite in2="hardAlpha" operator="out"/>
<feColorMatrix type="matrix" values="0 0 0 0 0 0 0 0 0 0 0 0 0 0 0 0 0 0 0.25 0"/>
<feBlend mode="normal" in2="BackgroundImageFix" result="effect1_dropShadow_10_97"/>
<feBlend mode="normal" in="SourceGraphic" in2="effect1_dropShadow_10_97" result="shape"/>
</filter>
<filter id="filter7_d_10_97" x="17.1505" y="44.6652" width="10.064" height="15.2527" filterUnits="userSpaceOnUse" color-interpolation-filters="sRGB">
<feFlood flood-opacity="0" result="BackgroundImageFix"/>
<feColorMatrix in="SourceAlpha" type="matrix" values="0 0 0 0 0 0 0 0 0 0 0 0 0 0 0 0 0 0 127 0" result="hardAlpha"/>
<feOffset dy="4"/>
<feGaussianBlur stdDeviation="2"/>
<feComposite in2="hardAlpha" operator="out"/>
<feColorMatrix type="matrix" values="0 0 0 0 0 0 0 0 0 0 0 0 0 0 0 0 0 0 0.25 0"/>
<feBlend mode="normal" in2="BackgroundImageFix" result="effect1_dropShadow_10_97"/>
<feBlend mode="normal" in="SourceGraphic" in2="effect1_dropShadow_10_97" result="shape"/>
</filter>
<filter id="filter8_d_10_97" x="20.8397" y="44.6652" width="13.5105" height="15.2527" filterUnits="userSpaceOnUse" color-interpolation-filters="sRGB">
<feFlood flood-opacity="0" result="BackgroundImageFix"/>
<feColorMatrix in="SourceAlpha" type="matrix" values="0 0 0 0 0 0 0 0 0 0 0 0 0 0 0 0 0 0 127 0" result="hardAlpha"/>
<feOffset dy="4"/>
<feGaussianBlur stdDeviation="2"/>
<feComposite in2="hardAlpha" operator="out"/>
<feColorMatrix type="matrix" values="0 0 0 0 0 0 0 0 0 0 0 0 0 0 0 0 0 0 0.25 0"/>
<feBlend mode="normal" in2="BackgroundImageFix" result="effect1_dropShadow_10_97"/>
<feBlend mode="normal" in="SourceGraphic" in2="effect1_dropShadow_10_97" result="shape"/>
</filter>
<filter id="filter9_d_10_97" x="27.3362" y="44.6652" width="13.5105" height="15.2527" filterUnits="userSpaceOnUse" color-interpolation-filters="sRGB">
<feFlood flood-opacity="0" result="BackgroundImageFix"/>
<feColorMatrix in="SourceAlpha" type="matrix" values="0 0 0 0 0 0 0 0 0 0 0 0 0 0 0 0 0 0 127 0" result="hardAlpha"/>
<feOffset dy="4"/>
<feGaussianBlur stdDeviation="2"/>
<feComposite in2="hardAlpha" operator="out"/>
<feColorMatrix type="matrix" values="0 0 0 0 0 0 0 0 0 0 0 0 0 0 0 0 0 0 0.25 0"/>
<feBlend mode="normal" in2="BackgroundImageFix" result="effect1_dropShadow_10_97"/>
<feBlend mode="normal" in="SourceGraphic" in2="effect1_dropShadow_10_97" result="shape"/>
</filter>
<filter id="filter10_d_10_97" x="36.5242" y="44.6566" width="16.9231" height="15.2614" filterUnits="userSpaceOnUse" color-interpolation-filters="sRGB">
<feFlood flood-opacity="0" result="BackgroundImageFix"/>
<feColorMatrix in="SourceAlpha" type="matrix" values="0 0 0 0 0 0 0 0 0 0 0 0 0 0 0 0 0 0 127 0" result="hardAlpha"/>
<feOffset dy="4"/>
<feGaussianBlur stdDeviation="2"/>
<feComposite in2="hardAlpha" operator="out"/>
<feColorMatrix type="matrix" values="0 0 0 0 0 0 0 0 0 0 0 0 0 0 0 0 0 0 0.25 0"/>
<feBlend mode="normal" in2="BackgroundImageFix" result="effect1_dropShadow_10_97"/>
<feBlend mode="normal" in="SourceGraphic" in2="effect1_dropShadow_10_97" result="shape"/>
</filter>
<filter id="filter11_d_10_97" x="46.2109" y="44.6652" width="17.0487" height="15.2527" filterUnits="userSpaceOnUse" color-interpolation-filters="sRGB">
<feFlood flood-opacity="0" result="BackgroundImageFix"/>
<feColorMatrix in="SourceAlpha" type="matrix" values="0 0 0 0 0 0 0 0 0 0 0 0 0 0 0 0 0 0 127 0" result="hardAlpha"/>
<feOffset dy="4"/>
<feGaussianBlur stdDeviation="2"/>
<feComposite in2="hardAlpha" operator="out"/>
<feColorMatrix type="matrix" values="0 0 0 0 0 0 0 0 0 0 0 0 0 0 0 0 0 0 0.25 0"/>
<feBlend mode="normal" in2="BackgroundImageFix" result="effect1_dropShadow_10_97"/>
<feBlend mode="normal" in="SourceGraphic" in2="effect1_dropShadow_10_97" result="shape"/>
</filter>
<filter id="filter12_d_10_97" x="55.2838" y="44.6566" width="14.9364" height="15.2614" filterUnits="userSpaceOnUse" color-interpolation-filters="sRGB">
<feFlood flood-opacity="0" result="BackgroundImageFix"/>
<feColorMatrix in="SourceAlpha" type="matrix" values="0 0 0 0 0 0 0 0 0 0 0 0 0 0 0 0 0 0 127 0" result="hardAlpha"/>
<feOffset dy="4"/>
<feGaussianBlur stdDeviation="2"/>
<feComposite in2="hardAlpha" operator="out"/>
<feColorMatrix type="matrix" values="0 0 0 0 0 0 0 0 0 0 0 0 0 0 0 0 0 0 0.25 0"/>
<feBlend mode="normal" in2="BackgroundImageFix" result="effect1_dropShadow_10_97"/>
<feBlend mode="normal" in="SourceGraphic" in2="effect1_dropShadow_10_97" result="shape"/>
</filter>
<filter id="filter13_d_10_97" x="62.5702" y="44.6047" width="15.6179" height="15.3952" filterUnits="userSpaceOnUse" color-interpolation-filters="sRGB">
<feFlood flood-opacity="0" result="BackgroundImageFix"/>
<feColorMatrix in="SourceAlpha" type="matrix" values="0 0 0 0 0 0 0 0 0 0 0 0 0 0 0 0 0 0 127 0" result="hardAlpha"/>
<feOffset dy="4"/>
<feGaussianBlur stdDeviation="2"/>
<feComposite in2="hardAlpha" operator="out"/>
<feColorMatrix type="matrix" values="0 0 0 0 0 0 0 0 0 0 0 0 0 0 0 0 0 0 0.25 0"/>
<feBlend mode="normal" in2="BackgroundImageFix" result="effect1_dropShadow_10_97"/>
<feBlend mode="normal" in="SourceGraphic" in2="effect1_dropShadow_10_97" result="shape"/>
</filter>
<filter id="filter14_d_10_97" x="71.1296" y="44.6652" width="15.4923" height="15.2527" filterUnits="userSpaceOnUse" color-interpolation-filters="sRGB">
<feFlood flood-opacity="0" result="BackgroundImageFix"/>
<feColorMatrix in="SourceAlpha" type="matrix" values="0 0 0 0 0 0 0 0 0 0 0 0 0 0 0 0 0 0 127 0" result="hardAlpha"/>
<feOffset dy="4"/>
<feGaussianBlur stdDeviation="2"/>
<feComposite in2="hardAlpha" operator="out"/>
<feColorMatrix type="matrix" values="0 0 0 0 0 0 0 0 0 0 0 0 0 0 0 0 0 0 0.25 0"/>
<feBlend mode="normal" in2="BackgroundImageFix" result="effect1_dropShadow_10_97"/>
<feBlend mode="normal" in="SourceGraphic" in2="effect1_dropShadow_10_97" result="shape"/>
</filter>
</defs>
</svg>
